<svg xmlns="http://www.w3.org/2000/svg" xmlns:xlink="http://www.w3.org/1999/xlink" viewBox="0 0 93.43 93.43"><defs><linearGradient id="a" y1="46.71" x2="93.43" y2="46.71" gradientUnits="userSpaceOnUse"><stop offset="0" stop-color="#ec008c"/><stop offset="1" stop-color="#2c3393"/></linearGradient><linearGradient id="b" x1="75.43" y1="50" x2="24.57" y2="50" xlink:href="#a"/></defs><title>add</title><circle cx="46.71" cy="46.71" r="43.21" style="fill:none;stroke-miterlimit:10;stroke-width:7px;stroke:url(#a)"/><path d="M75.43,50a17.26,17.26,0,0,1-.17,2.61,5.58,5.58,0,0,1-.5,1.69,2.27,2.27,0,0,1-.78.92,1.77,1.77,0,0,1-.94.27H55.77V74.34a1.72,1.72,0,0,1-.27,1,2.25,2.25,0,0,1-1,.73,6.77,6.77,0,0,1-1.77.47,19.65,19.65,0,0,1-2.78.16,19.56,19.56,0,0,1-2.78-.16A6.77,6.77,0,0,1,45.45,76a2.4,2.4,0,0,1-1-.73,1.54,1.54,0,0,1-.31-1V55.52H27a1.62,1.62,0,0,1-.91-.27,2.39,2.39,0,0,1-.75-.92,5.81,5.81,0,0,1-.53-1.69,14.66,14.66,0,0,1-.2-2.61,17.3,17.3,0,0,1,.17-2.58,6.34,6.34,0,0,1,.47-1.72,2.42,2.42,0,0,1,.7-.92,1.5,1.5,0,0,1,.89-.28H44.17V25.77a1.83,1.83,0,0,1,.31-1,2.23,2.23,0,0,1,1-.78,6.77,6.77,0,0,1,1.77-.47A19.56,19.56,0,0,1,50,23.33a19.65,19.65,0,0,1,2.78.16,6.77,6.77,0,0,1,1.77.47,2.11,2.11,0,0,1,1,.78,2.06,2.06,0,0,1,.27,1V44.53H73.2a1.6,1.6,0,0,1,.87.28,2.35,2.35,0,0,1,.72.92,6.34,6.34,0,0,1,.47,1.72A17.3,17.3,0,0,1,75.43,50Z" transform="translate(-3.29 -3.29)" style="fill:url(#b)"/></svg>