<svg xmlns="http://www.w3.org/2000/svg" xmlns:xlink="http://www.w3.org/1999/xlink" viewBox="0 0 467.02 476.07"><defs><linearGradient id="a" x1="22.49" y1="256" x2="489.51" y2="256" gradientUnits="userSpaceOnUse"><stop offset="0" stop-color="#ec008c"/><stop offset="1" stop-color="#2c3393"/></linearGradient><linearGradient id="b" x1="97.89" y1="256" x2="489.51" y2="256" gradientUnits="userSpaceOnUse"><stop offset="0.01" stop-color="#4bb749"/><stop offset="0.3" stop-color="#72c33d"/><stop offset="0.93" stop-color="#d4e020"/><stop offset="1" stop-color="#e0e31c"/></linearGradient></defs><title>crealick</title><path d="M371.49,374a162,162,0,1,1,1.41-234.68" transform="translate(-22.49 -17.97)" style="fill:none"/><path d="M411.29,334.62,440.87,364l-41.7,42.4a203.84,203.84,0,0,1-138.65,54.16C147.54,460.57,56,369,56,256S147.54,51.43,260.52,51.43a203.93,203.93,0,0,1,143.75,59l36.6,36.75L412.1,178.14l24,24.19L489.51,149,428.93,87.78A237.29,237.29,0,0,0,260.52,18c-131.46,0-238,106.57-238,238s106.57,238,238,238A237.16,237.16,0,0,0,420.9,431.89l68.61-67.59L435.79,310Z" transform="translate(-22.49 -17.97)" style="fill:url(#a)"/><circle cx="232.7" cy="238.03" r="94.37" style="fill:#43435e"/><circle cx="232.7" cy="238.03" r="88.93" style="fill:#242633"/><circle cx="232.7" cy="238.03" r="77.51" style="fill:#cccacb"/><circle cx="232.7" cy="238.03" r="73.65" style="fill:#64605f"/><circle cx="232.7" cy="238.03" r="68.59" style="fill:#cccacb"/><circle cx="232.7" cy="238.03" r="61.83" style="fill:#676767"/><circle cx="232.7" cy="238.03" r="54.02" style="fill:#242633"/><circle cx="232.7" cy="238.03" r="42.53" style="fill:#676767"/><circle cx="232.7" cy="238.03" r="36.17" style="fill:#242633"/><circle cx="238.77" cy="228.04" r="15.29" style="fill:#fff"/><circle cx="221.28" cy="250.82" r="7.5" style="fill:#fff"/><path d="M373.15,139a162.52,162.52,0,1,0-1.42,235.42L489.51,256ZM349.29,348.07a130.15,130.15,0,0,1-88.88,34.73C189,382.8,131.13,326,131.13,256S189,129.2,260.41,129.2a130.2,130.2,0,0,1,87.23,33.22L440.85,256Z" transform="translate(-22.49 -17.97)" style="fill:url(#b)"/></svg>