<svg xmlns="http://www.w3.org/2000/svg" xmlns:xlink="http://www.w3.org/1999/xlink" viewBox="0 0 512 512"><defs><linearGradient id="a" x1="124.91" y1="256" x2="449.85" y2="256" gradientUnits="userSpaceOnUse"><stop offset="0.01" stop-color="#4bb749"/><stop offset="0.3" stop-color="#72c33d"/><stop offset="0.93" stop-color="#d4e020"/><stop offset="1" stop-color="#e0e31c"/></linearGradient><linearGradient id="b" x1="119.91" y1="256" x2="456.9" y2="256" xlink:href="#a"/><linearGradient id="c" x1="48.11" y1="256" x2="463.89" y2="256" gradientUnits="userSpaceOnUse"><stop offset="0" stop-color="#ec008c"/><stop offset="1" stop-color="#2c3393"/></linearGradient><linearGradient id="d" x1="43.16" x2="470.9" xlink:href="#c"/></defs><title>crealick</title><rect width="512" height="512" rx="80" style="fill:#fff"/><path d="M352.13,354.23a134.84,134.84,0,1,1,1.17-195.34" style="fill:none"/><path d="M353.3,158.89a134.84,134.84,0,1,0-1.17,195.34L449.85,256ZM333.5,332.4a108,108,0,0,1-73.75,28.81c-59.24,0-107.26-47.1-107.26-105.21s48-105.21,107.26-105.21a108,108,0,0,1,72.39,27.56L409.48,256Z" style="stroke-miterlimit:10;stroke-width:10px;fill:url(#a);stroke:url(#b)"/><path d="M394.25,326l26.34,26.16-37.13,37.75A182.13,182.13,0,1,1,388,126.43l32.59,32.71L395,186.68l21.42,21.54,47.5-47.51L410,106.24A211.24,211.24,0,0,0,260,44.08C143,44.08,48.11,139,48.11,256S143,467.92,260,467.92a211.14,211.14,0,0,0,142.78-55.33l61.08-60.17-47.82-48.35Z" style="stroke-miterlimit:10;stroke-width:9.899999618530273px;fill:url(#c);stroke:url(#d)"/><circle cx="255.33" cy="256" r="78.55" style="fill:#43435e"/><circle cx="255.33" cy="256" r="74.02" style="fill:#242633"/><circle cx="255.33" cy="256" r="64.52" style="fill:#cccacb"/><circle cx="255.33" cy="256" r="61.3" style="fill:#64605f"/><circle cx="255.33" cy="256" r="57.09" style="fill:#cccacb"/><circle cx="255.33" cy="256" r="51.47" style="fill:#676767"/><circle cx="255.33" cy="256" r="44.96" style="fill:#242633"/><circle cx="255.33" cy="256" r="35.4" style="fill:#676767"/><circle cx="255.33" cy="256" r="30.1" style="fill:#242633"/><circle cx="260.38" cy="247.68" r="12.73" style="fill:#fff"/><circle cx="245.82" cy="266.65" r="6.24" style="fill:#fff"/></svg>