<svg id="Layer_1" data-name="Layer 1" xmlns="http://www.w3.org/2000/svg" xmlns:xlink="http://www.w3.org/1999/xlink" viewBox="0 0 66.19 18.14"><defs><linearGradient id="linear-gradient" x1="54.65" y1="10.22" x2="66.79" y2="10.22" gradientUnits="userSpaceOnUse"><stop offset="0" stop-color="#eb008b"/><stop offset="1" stop-color="#2c3392"/></linearGradient><linearGradient id="linear-gradient-2" x1="56.61" y1="10.22" x2="66.79" y2="10.22" gradientUnits="userSpaceOnUse"><stop offset="0.01" stop-color="#4bb649"/><stop offset="0.3" stop-color="#72c23d"/><stop offset="0.93" stop-color="#d4df1f"/><stop offset="1" stop-color="#dfe21c"/></linearGradient><linearGradient id="linear-gradient-3" x1="0.6" y1="9.29" x2="16.4" y2="9.29" xlink:href="#linear-gradient"/><linearGradient id="linear-gradient-4" x1="14.76" y1="11.75" x2="20.15" y2="11.75" xlink:href="#linear-gradient"/><linearGradient id="linear-gradient-5" x1="19.44" y1="12.71" x2="25.24" y2="12.71" xlink:href="#linear-gradient"/><linearGradient id="linear-gradient-6" x1="24.42" y1="12.71" x2="32.35" y2="12.71" xlink:href="#linear-gradient"/><linearGradient id="linear-gradient-7" x1="31.62" y1="10.01" x2="37.76" y2="10.01" xlink:href="#linear-gradient"/><linearGradient id="linear-gradient-8" x1="35.57" y1="11.41" x2="40.08" y2="11.41" xlink:href="#linear-gradient"/><linearGradient id="linear-gradient-9" x1="39.41" y1="12.75" x2="45.31" y2="12.75" xlink:href="#linear-gradient"/><linearGradient id="linear-gradient-10" x1="43.92" y1="10.25" x2="52.46" y2="10.25" xlink:href="#linear-gradient"/></defs><path d="M63.72,13.29a4.21,4.21,0,1,1,0-6.1" transform="translate(-0.6 -0.22)" style="fill:none"/><path d="M64.75,12.27l.77.76-1.08,1.1a5.31,5.31,0,1,1,.13-7.69l1,1-.75.8.63.63,1.39-1.39L65.21,5.85A6.19,6.19,0,1,0,65,14.79L66.79,13l-1.4-1.41Z" transform="translate(-0.6 -0.22)" style="fill:url(#linear-gradient)"/><path d="M63.76,7.18a4.22,4.22,0,1,0,0,6.12l3.06-3.08Zm-.62,5.44a3.38,3.38,0,0,1-5.67-2.4,3.33,3.33,0,0,1,3.36-3.29,3.41,3.41,0,0,1,2.27.86l2.42,2.43Z" transform="translate(-0.6 -0.22)" style="fill:url(#linear-gradient-2)"/><path d="M61,7.81a2.42,2.42,0,1,0,2.42,2.41A2.41,2.41,0,0,0,61,7.81Zm0,4.31a1.9,1.9,0,1,1,1.9-1.9A1.9,1.9,0,0,1,61,12.12Z" transform="translate(-0.6 -0.22)" style="fill:#43435e"/><path d="M61,8.8a1.42,1.42,0,1,0,1.42,1.42A1.43,1.43,0,0,0,61,8.8Zm-.47,1.35a.32.32,0,0,1-.32-.32.32.32,0,0,1,.32-.33.33.33,0,0,1,.33.33A.32.32,0,0,1,60.5,10.15Zm.63.37a.22.22,0,1,1,.22-.22A.22.22,0,0,1,61.13,10.52Z" transform="translate(-0.6 -0.22)" style="fill:#43435e"/><circle cx="60.53" cy="10.09" r="0.22" style="fill:#fff"/><circle cx="59.91" cy="9.61" r="0.33" style="fill:#fff"/><path d="M6.78,18.36a6.78,6.78,0,0,1-3.21-.73,5.19,5.19,0,0,1-2.19-2.14A7.17,7.17,0,0,1,.6,12,9.44,9.44,0,0,1,.92,9.54a12.88,12.88,0,0,1,.86-2.37A14.68,14.68,0,0,1,3,5.08,10.5,10.5,0,0,1,2.7,2.5a8.26,8.26,0,0,1,.24-2C3,.31,3.09.22,3.22.22s.15.06.14.19-.07.55-.1.85,0,.65,0,1.06a10.29,10.29,0,0,0,.22,2.19c.13-.17.26-.33.4-.48A11.79,11.79,0,0,1,5.76,2.35,10.33,10.33,0,0,1,8.24,1.09,8.63,8.63,0,0,1,11.13.61a6.42,6.42,0,0,1,2.62.53,4.59,4.59,0,0,1,1.92,1.51,4,4,0,0,1,.26,4.16A5.8,5.8,0,0,1,14.6,8.49a6.73,6.73,0,0,1-2.09,1.24,7.38,7.38,0,0,1-2.73.48,7.67,7.67,0,0,1-3.64-.87A6,6,0,0,1,3.58,6.67,11.88,11.88,0,0,0,2.41,9.54,10.53,10.53,0,0,0,2,12.3a6.65,6.65,0,0,0,.63,3.1,4.1,4.1,0,0,0,1.76,1.76A5.76,5.76,0,0,0,7,17.72a8,8,0,0,0,4.54-1.3,9.57,9.57,0,0,0,3.23-4q.24,0,.24.18a9.51,9.51,0,0,1-3.37,4.36A8.66,8.66,0,0,1,6.78,18.36Zm-2.35-13c-.17.24-.33.49-.49.74A6,6,0,0,0,6.06,8.7a6.21,6.21,0,0,0,3.6,1,6.73,6.73,0,0,0,2.45-.41,5.39,5.39,0,0,0,1.83-1.12,4.78,4.78,0,0,0,1.14-1.54,3.88,3.88,0,0,0,.4-1.7,3.13,3.13,0,0,0-.56-1.84,3.89,3.89,0,0,0-1.54-1.25,5.38,5.38,0,0,0-2.21-.44A6.43,6.43,0,0,0,8.7,1.9,9.69,9.69,0,0,0,6.35,3.32,10.8,10.8,0,0,0,4.43,5.34Z" transform="translate(-0.6 -0.22)" style="fill:url(#linear-gradient-3)"/><path d="M14.79,12.34c.1-.23.24-.59.41-1.09s.35-1,.54-1.65a14.88,14.88,0,0,0,.42-1.73.8.8,0,0,1,.22-.47.48.48,0,0,1,.33-.15.61.61,0,0,1,.48.25,1,1,0,0,1,.22.7,1.45,1.45,0,0,1-.33,1,4.84,4.84,0,0,1-.8.75,2.73,2.73,0,0,0,.41,0h.48A14.25,14.25,0,0,0,19,9.83a.54.54,0,0,1,0,.18,2,2,0,0,1-.15.66,6.85,6.85,0,0,1-.31.71c-.05.12-.16.34-.32.65s-.33.66-.51,1.05a10.08,10.08,0,0,0-.47,1.16,3,3,0,0,0-.19,1c0,.34.13.52.4.52s.6-.3,1-.89a12,12,0,0,0,1.35-2.43q.24,0,.24.18c-.14.35-.33.74-.54,1.17a10.37,10.37,0,0,1-.73,1.2,4.28,4.28,0,0,1-.85.93,1.51,1.51,0,0,1-1,.37,1.16,1.16,0,0,1-.75-.31,1.19,1.19,0,0,1-.38-1,3.13,3.13,0,0,1,.24-1.2,10.2,10.2,0,0,1,.53-1.1l.54-.92a1.34,1.34,0,0,0,.24-.64c0-.23-.15-.41-.45-.51a3.62,3.62,0,0,0-1.16-.18q-.36.91-.54,1.35t-.33.84C14.79,12.58,14.72,12.5,14.79,12.34Z" transform="translate(-0.6 -0.22)" style="fill:url(#linear-gradient-4)"/><path d="M21.34,16.31A2,2,0,0,1,20,15.83a1.75,1.75,0,0,1-.58-1.45,4.66,4.66,0,0,1,.36-1.72,7.35,7.35,0,0,1,1-1.72,5.62,5.62,0,0,1,1.35-1.32,2.71,2.71,0,0,1,1.5-.5,1.32,1.32,0,0,1,.73.22.79.79,0,0,1,.36.75,2,2,0,0,1-.38,1.09,4.15,4.15,0,0,1-1.07,1.12,4.28,4.28,0,0,1-.75.41,5.65,5.65,0,0,1-.92.33,2.68,2.68,0,0,1-.75.13,4.17,4.17,0,0,0-.28,1.45,2,2,0,0,0,.2.9.75.75,0,0,0,.73.39,2.19,2.19,0,0,0,1.23-.37,4.35,4.35,0,0,0,1-1,7.53,7.53,0,0,0,.76-1.17c.22-.4.38-.74.5-1q.24,0,.24.18c-.17.37-.37.77-.59,1.21A7,7,0,0,1,23.88,15a3.71,3.71,0,0,1-1.08.93A2.76,2.76,0,0,1,21.34,16.31ZM21,12.81a3.5,3.5,0,0,0,.93-.2,3.35,3.35,0,0,0,1.19-.67,3.39,3.39,0,0,0,.8-1,2.27,2.27,0,0,0,.28-.93c0-.29-.11-.43-.32-.43a1.25,1.25,0,0,0-.66.31,6.86,6.86,0,0,0-1,1.08,10.37,10.37,0,0,0-.72,1C21.24,12.37,21.08,12.64,21,12.81Z" transform="translate(-0.6 -0.22)" style="fill:url(#linear-gradient-5)"/><path d="M29.31,16.29A1.08,1.08,0,0,1,28.16,15a4.26,4.26,0,0,1,.05-.64c0-.19.08-.41.13-.63-.12.2-.29.44-.5.73a8,8,0,0,1-.7.86,4.53,4.53,0,0,1-.8.69,1.32,1.32,0,0,1-.76.28,1,1,0,0,1-.84-.47,2.12,2.12,0,0,1-.32-1.22,4.77,4.77,0,0,1,.38-1.75,7.52,7.52,0,0,1,1-1.78,5.72,5.72,0,0,1,1.51-1.4,3.35,3.35,0,0,1,1.78-.53,2.58,2.58,0,0,1,.88.15,1.86,1.86,0,0,1,.73.48.43.43,0,0,1,.14.32.23.23,0,0,1-.1.2.27.27,0,0,1-.25,0,.92.92,0,0,0-.94-.7,1.86,1.86,0,0,0-.77.22,4.9,4.9,0,0,0-1.15.89,9.7,9.7,0,0,0-1.13,1.37,8.78,8.78,0,0,0-.86,1.54A3.52,3.52,0,0,0,25.34,15c0,.44.16.66.5.66a1.37,1.37,0,0,0,.9-.42,5.83,5.83,0,0,0,.89-1c.29-.42.55-.84.79-1.25s.42-.74.56-1a7.06,7.06,0,0,1,.55-.89.85.85,0,0,1,.74-.36,1.59,1.59,0,0,1,.43.06,1.18,1.18,0,0,0,.46,0,6.06,6.06,0,0,0-1,1.41,8.14,8.14,0,0,0-.69,1.6,4.63,4.63,0,0,0-.24,1.32c0,.4.14.6.4.6a1.06,1.06,0,0,0,.69-.36,5.05,5.05,0,0,0,.71-.91c.23-.36.45-.73.65-1.11s.36-.71.47-1a.42.42,0,0,1,.17,0s.07.06.07.16a.47.47,0,0,1-.07.17c0,.05-.08.16-.15.3l-.43.86A11.62,11.62,0,0,1,31,15a4.89,4.89,0,0,1-.81.92A1.36,1.36,0,0,1,29.31,16.29Z" transform="translate(-0.6 -0.22)" style="fill:url(#linear-gradient-6)"/><path d="M33.05,16.29A1.27,1.27,0,0,1,32,15.84a1.61,1.61,0,0,1-.35-1.06,5.1,5.1,0,0,1,.18-1.31c.12-.45.22-.83.31-1.13.22-.74.48-1.54.81-2.38S33.6,8.29,34,7.48s.78-1.55,1.16-2.2a4,4,0,0,1,1-1.16,1.64,1.64,0,0,1,.92-.39.65.65,0,0,1,.51.23,1,1,0,0,1,.19.69,3.31,3.31,0,0,1-.11.75,6,6,0,0,1-.37,1,26.79,26.79,0,0,1-1.66,3.1,13.92,13.92,0,0,1-2.43,2.9,8.31,8.31,0,0,0-.4,1.19,4.25,4.25,0,0,0-.16,1q0,1.23.84,1.23a2.05,2.05,0,0,0,1.41-.92,10.9,10.9,0,0,0,1.47-2.53l.16,0a.14.14,0,0,1,.08.15c-.15.35-.33.75-.55,1.18A8,8,0,0,1,35.28,15a3.63,3.63,0,0,1-1,.94A2.19,2.19,0,0,1,33.05,16.29Zm.3-4.53a13.77,13.77,0,0,0,1.39-1.7,22.7,22.7,0,0,0,1.26-2,18.92,18.92,0,0,0,1-2,3.2,3.2,0,0,0,.23-.66,2.57,2.57,0,0,0,.09-.59c0-.19,0-.28-.14-.28s-.13,0-.24.15a3.9,3.9,0,0,0-.41.5,9.05,9.05,0,0,0-.83,1.35q-.45.86-.9,1.83c-.31.65-.59,1.28-.84,1.88S33.49,11.36,33.35,11.76Z" transform="translate(-0.6 -0.22)" style="fill:url(#linear-gradient-7)"/><path d="M36.9,16.23a1.16,1.16,0,0,1-1-.43,1.65,1.65,0,0,1-.3-1,3.07,3.07,0,0,1,.07-.6,3.85,3.85,0,0,1,.17-.57l1.33-3.4A.83.83,0,0,0,37.2,10a.6.6,0,0,0-.1-.35L37,9.42l1.1,0a.62.62,0,0,1,.42.07.25.25,0,0,1,.13.2,1.2,1.2,0,0,1-.14.44c-.13.32-.31.72-.53,1.19s-.45,1-.67,1.47-.4,1-.56,1.42a3.29,3.29,0,0,0-.22,1,.72.72,0,0,0,.13.44.49.49,0,0,0,.44.17,1.3,1.3,0,0,0,.83-.32,4,4,0,0,0,.76-.85,9.89,9.89,0,0,0,.67-1.11c.2-.4.38-.77.52-1.11q.24,0,.24.18c-.13.33-.3.71-.51,1.13a10.37,10.37,0,0,1-.73,1.2,4.46,4.46,0,0,1-.89.94A1.66,1.66,0,0,1,36.9,16.23Zm1.77-8.09A.58.58,0,0,1,38.23,8,.68.68,0,0,1,38,7.47a.84.84,0,0,1,.27-.61.89.89,0,0,1,.62-.27.68.68,0,0,1,.48.18.6.6,0,0,1,.2.46.91.91,0,0,1-.28.64A.93.93,0,0,1,38.67,8.14Z" transform="translate(-0.6 -0.22)" style="fill:url(#linear-gradient-8)"/><path d="M41.55,16.31a2.13,2.13,0,0,1-1.62-.57,2.24,2.24,0,0,1-.52-1.55,3.73,3.73,0,0,1,.18-1.06,9.12,9.12,0,0,1,.47-1.21,6.7,6.7,0,0,1,.66-1.09A4.66,4.66,0,0,1,42,9.62,2.73,2.73,0,0,1,43.4,9.2a1.5,1.5,0,0,1,1.09.33,1.05,1.05,0,0,1,.32.76,1.36,1.36,0,0,1-.2.75,2.08,2.08,0,0,1-.44.52.71.71,0,0,1-.43.2.38.38,0,0,1-.28-.12,5.27,5.27,0,0,0,.34-.47,2.64,2.64,0,0,0,.26-.54,1.61,1.61,0,0,0,.08-.48c0-.34-.16-.52-.48-.52a1.69,1.69,0,0,0-1.12.48,5.14,5.14,0,0,0-1,1.22,8.21,8.21,0,0,0-.71,1.57,4.93,4.93,0,0,0-.27,1.52,1.92,1.92,0,0,0,.27,1.06,1,1,0,0,0,.88.41,2.12,2.12,0,0,0,1.43-.52A5.42,5.42,0,0,0,44.24,14a16.83,16.83,0,0,0,.83-1.64.45.45,0,0,1,.16,0,.14.14,0,0,1,.08.15,12.67,12.67,0,0,1-.93,1.84,5,5,0,0,1-1.23,1.37A2.54,2.54,0,0,1,41.55,16.31Z" transform="translate(-0.6 -0.22)" style="fill:url(#linear-gradient-9)"/><path d="M48.53,16.37a1.4,1.4,0,0,1-.91-.43,2.16,2.16,0,0,1-.52-.86,2.91,2.91,0,0,1-.16-.91,2.14,2.14,0,0,1,.36-1.29c.24-.32.45-.49.65-.5a2.08,2.08,0,0,0,.78-.15,2.4,2.4,0,0,0,.79-.47,1.22,1.22,0,0,0,.58-.93c0-.33-.19-.5-.58-.5a2,2,0,0,0-.8.22,4.84,4.84,0,0,0-1.12.75A11.55,11.55,0,0,0,46,13.11a6.11,6.11,0,0,0-.28.77,8.81,8.81,0,0,0-.27,1,4.94,4.94,0,0,0-.11.91.55.55,0,0,0,.1.4H44.14c-.15,0-.22-.06-.22-.18a.3.3,0,0,1,0-.1.49.49,0,0,0,0-.16A10.68,10.68,0,0,1,44.64,14c.26-.53.48-1,.65-1.39-.12,0-.19,0-.2,0a1,1,0,0,1,0-.15c.09-.21.25-.56.47-1l.77-1.63c.3-.61.62-1.26,1-1.93s.69-1.33,1-1.95a8.88,8.88,0,0,1,.85-1.35,1,1,0,0,1,.8-.4,1.91,1.91,0,0,1,.43.06,1,1,0,0,0,.44,0,7,7,0,0,0-1.09,1.38c-.44.67-.9,1.45-1.39,2.34s-1,1.79-1.41,2.72c-.13.26-.26.54-.38.83s-.23.59-.34.88c.28-.35.6-.7,1-1.08a11.86,11.86,0,0,1,1.12-1,4.27,4.27,0,0,1,1.16-.68,3.37,3.37,0,0,1,1.1-.24.86.86,0,0,1,.66.22.75.75,0,0,1,.21.55,1.93,1.93,0,0,1-.3.91,2.89,2.89,0,0,1-.81.9,6.4,6.4,0,0,1-.92.52,3.53,3.53,0,0,1-1.13.28,2.78,2.78,0,0,0-.17.56,3.66,3.66,0,0,0-.05.57,2.56,2.56,0,0,0,.36,1.36,1.07,1.07,0,0,0,.93.59,1.5,1.5,0,0,0,.61-.16,2.61,2.61,0,0,0,.69-.54,5,5,0,0,0,.79-1.1c.27-.47.53-1,.8-1.58.15,0,.23.06.23.18a10.57,10.57,0,0,1-1.39,2.56,3.15,3.15,0,0,1-1.3,1.06A2.83,2.83,0,0,1,48.53,16.37Z" transform="translate(-0.6 -0.22)" style="fill:url(#linear-gradient-10)"/></svg>