<svg xmlns="http://www.w3.org/2000/svg" xmlns:xlink="http://www.w3.org/1999/xlink" viewBox="0 0 69.06 19.17"><defs><linearGradient id="a" x1="0.38" y1="9.99" x2="17.07" y2="9.99" gradientUnits="userSpaceOnUse"><stop offset="0" stop-color="#ec008c"/><stop offset="1" stop-color="#2c3393"/></linearGradient><linearGradient id="b" x1="15.35" y1="12.6" x2="21.04" y2="12.6" xlink:href="#a"/><linearGradient id="c" x1="20.29" y1="13.62" x2="26.42" y2="13.62" xlink:href="#a"/><linearGradient id="d" x1="25.56" y1="13.61" x2="33.94" y2="13.61" xlink:href="#a"/><linearGradient id="e" x1="33.16" y1="10.76" x2="39.65" y2="10.76" xlink:href="#a"/><linearGradient id="f" x1="37.34" y1="12.24" x2="42.1" y2="12.24" xlink:href="#a"/><linearGradient id="g" x1="41.39" y1="13.66" x2="47.63" y2="13.66" xlink:href="#a"/><linearGradient id="h" x1="46.16" y1="11.01" x2="55.19" y2="11.01" xlink:href="#a"/><linearGradient id="i" x1="56.54" y1="11.01" x2="69.44" y2="11.01" xlink:href="#a"/><linearGradient id="j" x1="58.62" y1="11.01" x2="69.44" y2="11.01" gradientUnits="userSpaceOnUse"><stop offset="0.01" stop-color="#4bb749"/><stop offset="0.3" stop-color="#72c33d"/><stop offset="0.93" stop-color="#d4e020"/><stop offset="1" stop-color="#e0e31c"/></linearGradient></defs><title>nav-logo</title><path d="M6.91,19.58a7.27,7.27,0,0,1-3.39-.77,5.41,5.41,0,0,1-2.31-2.26,7.48,7.48,0,0,1-.83-3.69,10.47,10.47,0,0,1,.33-2.6,13.34,13.34,0,0,1,.92-2.5A14.39,14.39,0,0,1,2.92,5.55,11.23,11.23,0,0,1,2.6,2.82,8.61,8.61,0,0,1,2.86.7C2.91.5,3,.41,3.15.41s.16.07.15.21-.08.57-.11.89,0,.69,0,1.12a11.45,11.45,0,0,0,.23,2.31c.14-.18.28-.35.42-.5a12.4,12.4,0,0,1,2-1.78A10.69,10.69,0,0,1,8.45,1.33a9.09,9.09,0,0,1,3.06-.5,6.78,6.78,0,0,1,2.77.55,5,5,0,0,1,2,1.6,4.11,4.11,0,0,1,.76,2.51,4.16,4.16,0,0,1-.49,1.89,6.11,6.11,0,0,1-1.41,1.77A7.36,7.36,0,0,1,13,10.47a8,8,0,0,1-2.89.5,8.13,8.13,0,0,1-3.84-.92A6.33,6.33,0,0,1,3.53,7.23a12.41,12.41,0,0,0-1.24,3,11.36,11.36,0,0,0-.4,2.91,6.93,6.93,0,0,0,.67,3.28,4.28,4.28,0,0,0,1.86,1.86,6,6,0,0,0,2.72.6,8.45,8.45,0,0,0,4.8-1.38,10,10,0,0,0,3.41-4.25c.17,0,.25.06.25.19A9.93,9.93,0,0,1,12,18.08,9,9,0,0,1,6.91,19.58ZM4.43,5.82c-.18.26-.36.52-.52.78A6.28,6.28,0,0,0,6.15,9.37,6.52,6.52,0,0,0,10,10.42a7.09,7.09,0,0,0,2.6-.44,5.9,5.9,0,0,0,1.93-1.17,5.49,5.49,0,0,0,1.21-1.63,4.19,4.19,0,0,0,.42-1.8,3.27,3.27,0,0,0-.6-1.95,3.94,3.94,0,0,0-1.63-1.31,5.45,5.45,0,0,0-2.33-.47,6.78,6.78,0,0,0-2.61.54A10,10,0,0,0,6.46,3.68,11.1,11.1,0,0,0,4.43,5.82Z" transform="translate(-0.38 -0.41)" style="fill:url(#a)"/><path d="M15.37,13.22c.11-.24.26-.62.44-1.15s.37-1.11.57-1.75a14.6,14.6,0,0,0,.44-1.83A.87.87,0,0,1,17.05,8a.5.5,0,0,1,.36-.16.67.67,0,0,1,.5.26,1.09,1.09,0,0,1,.23.75,1.54,1.54,0,0,1-.34,1,5,5,0,0,1-.85.79l.44,0h.5a15.7,15.7,0,0,0,1.95-.13.67.67,0,0,1,.05.19,2.21,2.21,0,0,1-.16.69,7.86,7.86,0,0,1-.33.76c0,.12-.16.35-.33.68s-.35.7-.55,1.11A12,12,0,0,0,18,15.22a3.43,3.43,0,0,0-.2,1c0,.36.14.55.42.55s.64-.31,1.11-.94a12.52,12.52,0,0,0,1.43-2.57c.17,0,.25.06.25.19a12,12,0,0,1-.58,1.24A10.66,10.66,0,0,1,19.7,16a4.6,4.6,0,0,1-.91,1,1.6,1.6,0,0,1-1,.38A1.22,1.22,0,0,1,17,17a1.28,1.28,0,0,1-.4-1.06,3.27,3.27,0,0,1,.25-1.27,9.77,9.77,0,0,1,.57-1.17l.57-1a1.54,1.54,0,0,0,.25-.68c0-.25-.16-.43-.47-.54a4.07,4.07,0,0,0-1.23-.19c-.26.64-.44,1.12-.57,1.43s-.25.6-.36.88C15.38,13.47,15.3,13.38,15.37,13.22Z" transform="translate(-0.38 -0.41)" style="fill:url(#b)"/><path d="M22.3,17.42a2.11,2.11,0,0,1-1.39-.51,1.82,1.82,0,0,1-.62-1.53,4.92,4.92,0,0,1,.38-1.83,8.13,8.13,0,0,1,1-1.81,6.25,6.25,0,0,1,1.43-1.39,2.79,2.79,0,0,1,1.59-.54,1.42,1.42,0,0,1,.77.24.84.84,0,0,1,.38.79,2.18,2.18,0,0,1-.4,1.16,4.28,4.28,0,0,1-1.13,1.17,3.93,3.93,0,0,1-.8.45,7,7,0,0,1-1,.34,3.06,3.06,0,0,1-.79.14,3.93,3.93,0,0,0-.2.67,3.55,3.55,0,0,0-.1.86,2.11,2.11,0,0,0,.21.95.79.79,0,0,0,.78.42,2.33,2.33,0,0,0,1.29-.4,4.44,4.44,0,0,0,1.07-1,8.21,8.21,0,0,0,.81-1.24c.22-.42.4-.78.53-1.07.16,0,.25.06.25.19-.18.39-.39.82-.62,1.28A7.83,7.83,0,0,1,25,16a4.11,4.11,0,0,1-1.13,1A3,3,0,0,1,22.3,17.42Zm-.38-3.7a3.66,3.66,0,0,0,1-.22,3.73,3.73,0,0,0,1.26-.7A3.78,3.78,0,0,0,25,11.74a2.2,2.2,0,0,0,.29-1c0-.31-.11-.46-.33-.46a1.31,1.31,0,0,0-.69.33,7.63,7.63,0,0,0-1.1,1.14,11.56,11.56,0,0,0-.75,1.09C22.19,13.25,22,13.54,21.92,13.72Z" transform="translate(-0.38 -0.41)" style="fill:url(#c)"/><path d="M30.72,17.4a1.42,1.42,0,0,1-.85-.28A1.34,1.34,0,0,1,29.5,16a3.55,3.55,0,0,1,.06-.67c0-.21.08-.44.13-.67-.12.21-.3.46-.52.77a10.32,10.32,0,0,1-.75.91,5.1,5.1,0,0,1-.84.73,1.39,1.39,0,0,1-.81.29,1,1,0,0,1-.88-.49,2.29,2.29,0,0,1-.33-1.29,4.91,4.91,0,0,1,.4-1.85,7.84,7.84,0,0,1,1.09-1.89,6.14,6.14,0,0,1,1.59-1.47,3.5,3.5,0,0,1,1.89-.57,2.88,2.88,0,0,1,.93.16,2,2,0,0,1,.77.52.44.44,0,0,1,.15.33.24.24,0,0,1-.1.21.29.29,0,0,1-.28,0,.94.94,0,0,0-1-.73,1.93,1.93,0,0,0-.82.23,5.17,5.17,0,0,0-1.21.94A10.07,10.07,0,0,0,27.79,13a10.25,10.25,0,0,0-.91,1.63,3.75,3.75,0,0,0-.36,1.49c0,.46.18.7.53.7a1.44,1.44,0,0,0,.95-.45,5.84,5.84,0,0,0,.95-1.1c.3-.44.58-.88.83-1.31s.45-.78.59-1.05a11.12,11.12,0,0,1,.58-.95.91.91,0,0,1,.78-.37,1.82,1.82,0,0,1,.46.06,1.15,1.15,0,0,0,.49,0,6.8,6.8,0,0,0-1.11,1.49,9.62,9.62,0,0,0-.72,1.69,4.88,4.88,0,0,0-.25,1.4q0,.63.42.63a1.11,1.11,0,0,0,.72-.38,5.27,5.27,0,0,0,.76-1c.24-.38.47-.77.68-1.17s.38-.75.5-1l.18,0s.08.07.08.17a1.26,1.26,0,0,1-.08.18L33.7,14c-.11.23-.26.53-.46.91A9.36,9.36,0,0,1,32.55,16a5.54,5.54,0,0,1-.86,1A1.5,1.5,0,0,1,30.72,17.4Z" transform="translate(-0.38 -0.41)" style="fill:url(#d)"/><path d="M34.67,17.4a1.33,1.33,0,0,1-1.14-.48,1.74,1.74,0,0,1-.37-1.12,5.28,5.28,0,0,1,.19-1.39c.12-.47.23-.87.33-1.19.23-.79.51-1.62.85-2.51s.72-1.77,1.14-2.63.82-1.63,1.23-2.32a4.07,4.07,0,0,1,1-1.23,1.74,1.74,0,0,1,1-.41.65.65,0,0,1,.54.25,1.12,1.12,0,0,1,.2.72,3.3,3.3,0,0,1-.12.8,6.33,6.33,0,0,1-.39,1.05,27.39,27.39,0,0,1-1.75,3.27,14.71,14.71,0,0,1-2.57,3.07,7.76,7.76,0,0,0-.42,1.26,4.34,4.34,0,0,0-.17,1.09c0,.87.29,1.3.88,1.3a2.15,2.15,0,0,0,1.49-1,10.89,10.89,0,0,0,1.56-2.68.45.45,0,0,1,.16,0c.06,0,.09.07.09.16-.16.38-.35.79-.58,1.25A9.55,9.55,0,0,1,37,16a4.1,4.1,0,0,1-1,1A2.33,2.33,0,0,1,34.67,17.4ZM35,12.61a14.44,14.44,0,0,0,1.46-1.8,23,23,0,0,0,1.34-2.12,21.3,21.3,0,0,0,1-2.09,3.5,3.5,0,0,0,.24-.69,2.79,2.79,0,0,0,.09-.63c0-.2,0-.3-.14-.3s-.14.06-.25.16a4.48,4.48,0,0,0-.45.54,11,11,0,0,0-.87,1.43c-.31.6-.63,1.24-1,1.93s-.62,1.35-.88,2S35.14,12.19,35,12.61Z" transform="translate(-0.38 -0.41)" style="fill:url(#e)"/><path d="M38.74,17.33a1.25,1.25,0,0,1-1.09-.45,1.77,1.77,0,0,1-.31-1,2.85,2.85,0,0,1,.07-.64,4.27,4.27,0,0,1,.18-.6L39,11a.88.88,0,0,0,.06-.29.67.67,0,0,0-.11-.37l-.14-.22,1.15,0a.71.71,0,0,1,.45.07.28.28,0,0,1,.14.22,1.35,1.35,0,0,1-.15.46c-.14.34-.33.76-.56,1.26s-.48,1-.71,1.56-.43,1-.59,1.49a3.56,3.56,0,0,0-.24,1.07.76.76,0,0,0,.14.46.53.53,0,0,0,.47.19,1.31,1.31,0,0,0,.87-.35,3.91,3.91,0,0,0,.81-.89,11,11,0,0,0,.71-1.17c.21-.42.4-.82.55-1.18.17,0,.25.06.25.19q-.21.53-.54,1.2a10.22,10.22,0,0,1-.77,1.27,4.7,4.7,0,0,1-.94,1A1.76,1.76,0,0,1,38.74,17.33Zm1.87-8.54a.62.62,0,0,1-.47-.21.73.73,0,0,1-.2-.51.86.86,0,0,1,.3-.64.9.9,0,0,1,.65-.28.71.71,0,0,1,.5.19.6.6,0,0,1,.21.48.93.93,0,0,1-.29.67A1,1,0,0,1,40.61,8.79Z" transform="translate(-0.38 -0.41)" style="fill:url(#f)"/><path d="M43.66,17.42A2.23,2.23,0,0,1,42,16.81a2.3,2.3,0,0,1-.56-1.64,3.8,3.8,0,0,1,.19-1.11,7.86,7.86,0,0,1,.5-1.28,6.49,6.49,0,0,1,.7-1.16,4.71,4.71,0,0,1,1.34-1.27,2.83,2.83,0,0,1,1.49-.45,1.57,1.57,0,0,1,1.15.35,1.1,1.1,0,0,1,.34.8,1.48,1.48,0,0,1-.21.79,2.21,2.21,0,0,1-.47.56.81.81,0,0,1-.45.21.41.41,0,0,1-.3-.13A4.33,4.33,0,0,0,46,12a2.08,2.08,0,0,0,.27-.57,1.51,1.51,0,0,0,.09-.5c0-.37-.17-.55-.51-.55a1.81,1.81,0,0,0-1.18.5,5.15,5.15,0,0,0-1.05,1.3,7.71,7.71,0,0,0-.76,1.65,5.25,5.25,0,0,0-.28,1.61,2,2,0,0,0,.28,1.11,1,1,0,0,0,.94.45,2.28,2.28,0,0,0,1.51-.56A5.44,5.44,0,0,0,46.49,15a14.08,14.08,0,0,0,.88-1.73.47.47,0,0,1,.17,0c.06,0,.09.07.09.16a11.88,11.88,0,0,1-1,1.95,5.39,5.39,0,0,1-1.29,1.45A2.76,2.76,0,0,1,43.66,17.42Z" transform="translate(-0.38 -0.41)" style="fill:url(#g)"/><path d="M51,17.48a1.52,1.52,0,0,1-1-.45,2.31,2.31,0,0,1-.54-.92,2.91,2.91,0,0,1-.17-1,2.21,2.21,0,0,1,.38-1.36c.25-.34.48-.52.69-.53a2.14,2.14,0,0,0,.82-.16,2.69,2.69,0,0,0,.84-.49,1.33,1.33,0,0,0,.61-1c0-.35-.21-.52-.61-.52a2,2,0,0,0-.85.23,5.28,5.28,0,0,0-1.19.79A12,12,0,0,0,48.3,14a7.54,7.54,0,0,0-.3.8c-.11.36-.2.73-.28,1.11a4.62,4.62,0,0,0-.11,1,.61.61,0,0,0,.1.42H46.39c-.16,0-.23-.06-.23-.19a.16.16,0,0,1,0-.1.85.85,0,0,0,0-.17,11.35,11.35,0,0,1,.7-1.93c.28-.56.5-1,.69-1.47q-.2.06-.21,0a.61.61,0,0,1,0-.16l.5-1.08c.23-.5.5-1.07.82-1.72s.65-1.34,1-2.05S50.43,7,50.8,6.37a9.59,9.59,0,0,1,.89-1.43,1.06,1.06,0,0,1,.85-.42,1.6,1.6,0,0,1,.45.07,1.27,1.27,0,0,0,.47,0,7.32,7.32,0,0,0-1.15,1.46c-.46.7-1,1.53-1.47,2.46s-1,1.9-1.49,2.88c-.14.28-.27.57-.4.88s-.25.62-.36.93c.3-.37.63-.74,1-1.14A12.08,12.08,0,0,1,50.79,11,4.38,4.38,0,0,1,52,10.28,3.47,3.47,0,0,1,53.17,10a.9.9,0,0,1,.7.24.79.79,0,0,1,.22.58,2,2,0,0,1-.31,1,3,3,0,0,1-.86.95,6.2,6.2,0,0,1-1,.55,3.65,3.65,0,0,1-1.19.29,2.29,2.29,0,0,0-.18.6,3.21,3.21,0,0,0-.06.6,2.71,2.71,0,0,0,.38,1.44,1.13,1.13,0,0,0,1,.62,1.49,1.49,0,0,0,.64-.17,2.49,2.49,0,0,0,.72-.57A5.28,5.28,0,0,0,54.09,15c.28-.5.56-1,.84-1.67.17,0,.26.06.26.19a11.77,11.77,0,0,1-1.47,2.71,3.42,3.42,0,0,1-1.38,1.12A3,3,0,0,1,51,17.48Z" transform="translate(-0.38 -0.41)" style="fill:url(#h)"/><path d="M66.18,14.27a4.48,4.48,0,1,1,0-6.48" transform="translate(-0.38 -0.41)" style="fill:none"/><path d="M67.28,13.18l.81.81-1.15,1.17A5.65,5.65,0,1,1,67.08,7l1,1-.79.86.66.67,1.48-1.48L67.76,6.36a6.58,6.58,0,1,0-.22,9.5L69.44,14,68,12.5Z" transform="translate(-0.38 -0.41)" style="fill:url(#i)"/><circle cx="62.59" cy="10.6" r="2.61" style="fill:#43435e"/><circle cx="62.59" cy="10.6" r="2.46" style="fill:#242633"/><circle cx="62.59" cy="10.6" r="2.14" style="fill:#cccacb"/><circle cx="62.59" cy="10.6" r="2.03" style="fill:#64605f"/><circle cx="62.59" cy="10.6" r="1.89" style="fill:#cccacb"/><circle cx="62.59" cy="10.6" r="1.71" style="fill:#676767"/><circle cx="62.59" cy="10.6" r="1.49" style="fill:#242633"/><circle cx="62.59" cy="10.6" r="1.17" style="fill:#676767"/><circle cx="62.59" cy="10.6" r="1" style="fill:#242633"/><circle cx="62.76" cy="10.32" r="0.42" style="fill:#fff"/><circle cx="62.27" cy="10.95" r="0.21" style="fill:#fff"/><path d="M66.22,7.78a4.44,4.44,0,0,0-3.11-1.26,4.49,4.49,0,1,0,3.07,7.76L69.44,11Zm-.66,5.77a3.61,3.61,0,0,1-2.45,1,3.5,3.5,0,1,1,0-7,3.6,3.6,0,0,1,2.41.91L68.09,11Z" transform="translate(-0.38 -0.41)" style="fill:url(#j)"/></svg>