<svg id="Layer_1" data-name="Layer 1" xmlns="http://www.w3.org/2000/svg" xmlns:xlink="http://www.w3.org/1999/xlink" viewBox="0 0 74.74 18.74"><defs><linearGradient id="linear-gradient" x1="56.8" y1="12.3" x2="75.04" y2="12.3" gradientTransform="matrix(1, 0, 0, -1, 0, 22)" gradientUnits="userSpaceOnUse"><stop offset="0" stop-color="#eb008b"/><stop offset="1" stop-color="#2c3392"/></linearGradient><linearGradient id="linear-gradient-2" x1="59.75" y1="12.4" x2="75.04" y2="12.4" gradientTransform="matrix(1, 0, 0, -1, 0, 22)" gradientUnits="userSpaceOnUse"><stop offset="0.01" stop-color="#4bb649"/><stop offset="0.3" stop-color="#72c23d"/><stop offset="0.93" stop-color="#d4df1f"/><stop offset="1" stop-color="#dfe21c"/></linearGradient><linearGradient id="linear-gradient-3" x1="0.31" y1="9.61" x2="16.6" y2="9.61" gradientTransform="matrix(1, 0, 0, 1, 0, 0)" xlink:href="#linear-gradient"/><linearGradient id="linear-gradient-4" x1="14.92" y1="12.15" x2="20.47" y2="12.15" gradientTransform="matrix(1, 0, 0, 1, 0, 0)" xlink:href="#linear-gradient"/><linearGradient id="linear-gradient-5" x1="19.74" y1="13.15" x2="25.72" y2="13.15" gradientTransform="matrix(1, 0, 0, 1, 0, 0)" xlink:href="#linear-gradient"/><linearGradient id="linear-gradient-6" x1="24.88" y1="13.14" x2="33.05" y2="13.14" gradientTransform="matrix(1, 0, 0, 1, 0, 0)" xlink:href="#linear-gradient"/><linearGradient id="linear-gradient-7" x1="32.29" y1="10.36" x2="38.63" y2="10.36" gradientTransform="matrix(1, 0, 0, 1, 0, 0)" xlink:href="#linear-gradient"/><linearGradient id="linear-gradient-8" x1="36.37" y1="11.81" x2="41.02" y2="11.81" gradientTransform="matrix(1, 0, 0, 1, 0, 0)" xlink:href="#linear-gradient"/><linearGradient id="linear-gradient-9" x1="40.33" y1="13.19" x2="46.41" y2="13.19" gradientTransform="matrix(1, 0, 0, 1, 0, 0)" xlink:href="#linear-gradient"/><linearGradient id="linear-gradient-10" x1="44.98" y1="10.6" x2="53.79" y2="10.6" gradientTransform="matrix(1, 0, 0, 1, 0, 0)" xlink:href="#linear-gradient"/></defs><path d="M70.45,14.3a6.13,6.13,0,0,1-4.3,1.7,6.3,6.3,0,1,1,4.4-10.8" transform="translate(-0.31 -0.26)" style="fill:none"/><path d="M72,12.8l1.2,1.1-1.6,1.7a7.91,7.91,0,0,1-5.4,2.1,8,8,0,0,1,0-16A7.94,7.94,0,0,1,71.75,4l1.4,1.4-1.1,1.2.9,1,2.1-2.1-2.4-2.4A9.21,9.21,0,0,0,66.05.4a9.3,9.3,0,1,0,0,18.6,9.48,9.48,0,0,0,6.3-2.4l2.7-2.6L73,11.8Z" transform="translate(-0.31 -0.26)" style="fill:url(#linear-gradient)"/><path d="M70.45,5.1a6.3,6.3,0,1,0-4.4,10.8,6.4,6.4,0,0,0,4.3-1.7L75,9.6Zm-.9,8.2a5.27,5.27,0,0,1-3.5,1.4,5,5,0,0,1-5-5,5,5,0,0,1,5-5A5.13,5.13,0,0,1,69.45,6l3.6,3.7Z" transform="translate(-0.31 -0.26)" style="fill:url(#linear-gradient-2)"/><path d="M66,6.1a3.6,3.6,0,1,0,3.6,3.6A3.59,3.59,0,0,0,66,6.1Zm0,6.4a2.8,2.8,0,1,1,2.8-2.8A2.8,2.8,0,0,1,66,12.5Z" transform="translate(-0.31 -0.26)" style="fill:#43435e"/><path d="M66,7.6a2.11,2.11,0,0,0-2.1,2.1,2.1,2.1,0,1,0,4.2,0A2.18,2.18,0,0,0,66,7.6Zm-.7,2a.5.5,0,1,1,.5-.5A.54.54,0,0,1,65.3,9.6Zm.9.5a.3.3,0,1,1,.3-.3A.27.27,0,0,1,66.2,10.1Z" transform="translate(-0.31 -0.26)" style="fill:#43435e"/><circle cx="65.89" cy="9.54" r="0.3" style="fill:#fff"/><circle cx="64.99" cy="8.84" r="0.5" style="fill:#fff"/><path d="M6.68,19a7,7,0,0,1-3.3-.75A5.32,5.32,0,0,1,1.12,16a7.3,7.3,0,0,1-.81-3.59A10.06,10.06,0,0,1,.64,9.87a13.67,13.67,0,0,1,.89-2.44A16,16,0,0,1,2.79,5.28a11.22,11.22,0,0,1-.31-2.66A8.63,8.63,0,0,1,2.73.55c0-.19.15-.29.29-.29s.15.07.14.2-.08.57-.1.88S3,2,3,2.43a11,11,0,0,0,.22,2.26l.41-.5a12.18,12.18,0,0,1,2-1.73,10.21,10.21,0,0,1,2.55-1.3,8.91,8.91,0,0,1,3-.49,6.69,6.69,0,0,1,2.71.54,4.77,4.77,0,0,1,2,1.56,4.1,4.1,0,0,1,.27,4.29,5.85,5.85,0,0,1-1.37,1.73,6.93,6.93,0,0,1-2.15,1.28,7.66,7.66,0,0,1-2.82.5A7.76,7.76,0,0,1,6,9.66,6.1,6.1,0,0,1,3.39,6.92,12.16,12.16,0,0,0,2.18,9.87a11.33,11.33,0,0,0-.39,2.85,6.85,6.85,0,0,0,.65,3.19,4.16,4.16,0,0,0,1.82,1.82,5.77,5.77,0,0,0,2.65.58A8.26,8.26,0,0,0,11.59,17a9.76,9.76,0,0,0,3.33-4.15c.16,0,.25.06.25.18a9.7,9.7,0,0,1-3.48,4.5A8.78,8.78,0,0,1,6.68,19ZM4.27,5.55c-.18.24-.35.49-.52.75A6.16,6.16,0,0,0,6,9a6.37,6.37,0,0,0,3.71,1,7,7,0,0,0,2.53-.43,5.77,5.77,0,0,0,1.88-1.14,5.22,5.22,0,0,0,1.18-1.59,4.14,4.14,0,0,0,.41-1.75,3.21,3.21,0,0,0-.59-1.91,3.8,3.8,0,0,0-1.58-1.28,5.37,5.37,0,0,0-2.28-.46A6.74,6.74,0,0,0,8.66,2,9.94,9.94,0,0,0,6.24,3.46,10.84,10.84,0,0,0,4.27,5.55Z" transform="translate(-0.31 -0.26)" style="fill:url(#linear-gradient-3)"/><path d="M14.94,12.76c.11-.23.25-.61.43-1.12s.36-1.08.55-1.71a12.35,12.35,0,0,0,.43-1.78.9.9,0,0,1,.23-.48.49.49,0,0,1,.35-.16.65.65,0,0,1,.49.26,1.06,1.06,0,0,1,.23.73,1.52,1.52,0,0,1-.34,1,5.21,5.21,0,0,1-.83.78l.43,0h.49a14.91,14.91,0,0,0,1.9-.12.62.62,0,0,1,.05.18,2.16,2.16,0,0,1-.16.68,6.36,6.36,0,0,1-.32.73c-.05.13-.16.35-.32.67s-.34.68-.54,1.09a11.26,11.26,0,0,0-.48,1.18,3.21,3.21,0,0,0-.19,1c0,.35.13.53.41.53s.62-.3,1.08-.91a12.47,12.47,0,0,0,1.4-2.51q.24,0,.24.18c-.15.37-.34.78-.56,1.21a11.66,11.66,0,0,1-.75,1.24,4.9,4.9,0,0,1-.88,1,1.54,1.54,0,0,1-1,.37,1.23,1.23,0,0,1-.78-.31,1.28,1.28,0,0,1-.39-1,3.19,3.19,0,0,1,.25-1.24,7.89,7.89,0,0,1,.55-1.13c.2-.36.39-.67.55-1a1.34,1.34,0,0,0,.25-.65c0-.25-.16-.43-.46-.54a4.22,4.22,0,0,0-1.2-.18c-.25.63-.43,1.09-.56,1.39l-.34.86C15,13,14.87,12.92,14.94,12.76Z" transform="translate(-0.31 -0.26)" style="fill:url(#linear-gradient-4)"/><path d="M21.7,16.86a2.1,2.1,0,0,1-1.36-.5,1.8,1.8,0,0,1-.6-1.49,4.77,4.77,0,0,1,.37-1.78,8.07,8.07,0,0,1,1-1.78A5.91,5.91,0,0,1,22.51,10a2.72,2.72,0,0,1,1.55-.52,1.45,1.45,0,0,1,.76.22.85.85,0,0,1,.37.78,2.16,2.16,0,0,1-.39,1.13,4.43,4.43,0,0,1-1.11,1.15,4.26,4.26,0,0,1-.78.43,8.86,8.86,0,0,1-.94.34,3.48,3.48,0,0,1-.78.13,3.74,3.74,0,0,0-.19.65,3.44,3.44,0,0,0-.1.84,2,2,0,0,0,.21.93.77.77,0,0,0,.76.41,2.23,2.23,0,0,0,1.26-.39,4.42,4.42,0,0,0,1-1A8.08,8.08,0,0,0,25,13.86c.22-.41.39-.75.51-1,.17,0,.25.06.25.18-.18.39-.38.8-.61,1.25a6.89,6.89,0,0,1-.8,1.26,3.94,3.94,0,0,1-1.1,1A2.94,2.94,0,0,1,21.7,16.86Zm-.37-3.61a4.27,4.27,0,0,0,2.2-.9,3.8,3.8,0,0,0,.82-1,2.16,2.16,0,0,0,.28-1q0-.45-.33-.45a1.3,1.3,0,0,0-.67.33,7.56,7.56,0,0,0-1.07,1.1,10.57,10.57,0,0,0-.73,1.07C21.59,12.79,21.43,13.07,21.33,13.25Z" transform="translate(-0.31 -0.26)" style="fill:url(#linear-gradient-5)"/><path d="M29.92,16.83a1.32,1.32,0,0,1-.83-.26,1.3,1.3,0,0,1-.36-1.09,4.4,4.4,0,0,1,.05-.65c0-.21.08-.43.13-.66a8.4,8.4,0,0,1-.51.76,9.72,9.72,0,0,1-.73.88,4.5,4.5,0,0,1-.82.72,1.4,1.4,0,0,1-.78.28,1,1,0,0,1-.86-.48,2.18,2.18,0,0,1-.33-1.26,4.8,4.8,0,0,1,.39-1.8,7.76,7.76,0,0,1,1.06-1.84A5.9,5.9,0,0,1,27.89,10a3.4,3.4,0,0,1,1.84-.55,2.76,2.76,0,0,1,.91.15,2.06,2.06,0,0,1,.75.5.46.46,0,0,1,.15.33.28.28,0,0,1-.11.21.28.28,0,0,1-.26,0,.93.93,0,0,0-1-.72,1.82,1.82,0,0,0-.8.23,4.69,4.69,0,0,0-1.18.91,9.63,9.63,0,0,0-1.17,1.41,9.77,9.77,0,0,0-.89,1.59,3.72,3.72,0,0,0-.35,1.45c0,.46.17.68.51.68a1.41,1.41,0,0,0,.93-.43,5.94,5.94,0,0,0,.93-1.08c.29-.43.56-.85.81-1.28l.57-1a9,9,0,0,1,.57-.92.87.87,0,0,1,.76-.37,1.74,1.74,0,0,1,.45.06,1.06,1.06,0,0,0,.47,0,6.48,6.48,0,0,0-1.07,1.46A8.85,8.85,0,0,0,30,14.3a5.06,5.06,0,0,0-.25,1.37c0,.41.14.61.42.61a1.05,1.05,0,0,0,.7-.37,5,5,0,0,0,.74-.93c.24-.37.46-.76.67-1.15s.36-.72.49-1l.17,0c.05,0,.07.07.07.16a.45.45,0,0,1-.07.18c0,.06-.08.16-.15.32l-.45.88a9.47,9.47,0,0,1-.68,1.11,5,5,0,0,1-.84,1A1.4,1.4,0,0,1,29.92,16.83Z" transform="translate(-0.31 -0.26)" style="fill:url(#linear-gradient-6)"/><path d="M33.77,16.83a1.32,1.32,0,0,1-1.12-.46,1.7,1.7,0,0,1-.36-1.09,5.36,5.36,0,0,1,.19-1.35q.18-.7.33-1.17a24.48,24.48,0,0,1,.83-2.45c.33-.87.7-1.72,1.1-2.56s.8-1.6,1.2-2.27a3.85,3.85,0,0,1,1-1.19,1.64,1.64,0,0,1,.95-.4.65.65,0,0,1,.52.23,1.11,1.11,0,0,1,.2.71,3.09,3.09,0,0,1-.12.78,5.24,5.24,0,0,1-.38,1,26.21,26.21,0,0,1-1.71,3.2,14.5,14.5,0,0,1-2.51,3,8.45,8.45,0,0,0-.41,1.23,4.53,4.53,0,0,0-.16,1.06c0,.85.29,1.27.86,1.27a2.09,2.09,0,0,0,1.45-.95,10.33,10.33,0,0,0,1.52-2.61.41.41,0,0,1,.16,0,.14.14,0,0,1,.09.15c-.15.37-.34.78-.57,1.22a7.37,7.37,0,0,1-.78,1.26,4.08,4.08,0,0,1-1,1A2.29,2.29,0,0,1,33.77,16.83Zm.31-4.67a13.68,13.68,0,0,0,1.43-1.75,21.86,21.86,0,0,0,1.3-2.07,21.53,21.53,0,0,0,1-2,4,4,0,0,0,.23-.67A2.71,2.71,0,0,0,38.15,5c0-.19,0-.28-.14-.28a.49.49,0,0,0-.25.15,5.34,5.34,0,0,0-.43.52,10.17,10.17,0,0,0-.85,1.4c-.3.58-.61,1.21-.93,1.88S35,10,34.69,10.62,34.23,11.75,34.08,12.16Z" transform="translate(-0.31 -0.26)" style="fill:url(#linear-gradient-7)"/><path d="M37.74,16.77a1.18,1.18,0,0,1-1.06-.44,1.68,1.68,0,0,1-.31-1,3.47,3.47,0,0,1,.07-.63,4.39,4.39,0,0,1,.18-.58L38,10.61a.88.88,0,0,0,.06-.29A.61.61,0,0,0,38,10l-.14-.21,1.12,0a.67.67,0,0,1,.44.07.25.25,0,0,1,.13.21,1.29,1.29,0,0,1-.14.45c-.13.33-.32.74-.55,1.23s-.46,1-.69,1.52-.41,1-.57,1.45a3.4,3.4,0,0,0-.24,1,.73.73,0,0,0,.14.45.53.53,0,0,0,.46.18,1.34,1.34,0,0,0,.85-.34,4,4,0,0,0,.79-.87A10.4,10.4,0,0,0,40.23,14c.21-.41.39-.8.55-1.15q.24,0,.24.18c-.14.34-.31.73-.53,1.17a9.08,9.08,0,0,1-.75,1.24,4.76,4.76,0,0,1-.92,1A1.73,1.73,0,0,1,37.74,16.77Zm1.83-8.33a.6.6,0,0,1-.46-.21.7.7,0,0,1-.2-.49.88.88,0,0,1,.29-.63.9.9,0,0,1,.63-.27.75.75,0,0,1,.5.18.62.62,0,0,1,.2.47,1,1,0,0,1-1,.95Z" transform="translate(-0.31 -0.26)" style="fill:url(#linear-gradient-8)"/><path d="M42.54,16.86a2.14,2.14,0,0,1-1.67-.6,2.28,2.28,0,0,1-.54-1.6,3.91,3.91,0,0,1,.18-1.08A8.49,8.49,0,0,1,41,12.33a6.76,6.76,0,0,1,.68-1.13A4.77,4.77,0,0,1,43,10a2.78,2.78,0,0,1,1.45-.44,1.53,1.53,0,0,1,1.12.34,1.06,1.06,0,0,1,.34.79,1.46,1.46,0,0,1-.21.77,2.05,2.05,0,0,1-.46.54.71.71,0,0,1-.44.2A.42.42,0,0,1,44.5,12a5.76,5.76,0,0,0,.35-.49,2,2,0,0,0,.27-.55,1.74,1.74,0,0,0,.08-.5c0-.35-.16-.53-.49-.53a1.8,1.8,0,0,0-1.16.49,5.25,5.25,0,0,0-1,1.26,7.86,7.86,0,0,0-.74,1.62,5.27,5.27,0,0,0-.28,1.57A2,2,0,0,0,41.79,16a1,1,0,0,0,.91.42,2.23,2.23,0,0,0,1.48-.54,5.31,5.31,0,0,0,1.12-1.37,15,15,0,0,0,.87-1.69l.16,0a.14.14,0,0,1,.08.15,11.37,11.37,0,0,1-1,1.91,5.12,5.12,0,0,1-1.26,1.41A2.64,2.64,0,0,1,42.54,16.86Z" transform="translate(-0.31 -0.26)" style="fill:url(#linear-gradient-9)"/><path d="M49.73,16.92a1.48,1.48,0,0,1-.94-.44,2.24,2.24,0,0,1-.54-.9,3,3,0,0,1-.16-.94,2.17,2.17,0,0,1,.37-1.32c.24-.33.47-.51.67-.52a2,2,0,0,0,.8-.16,2.31,2.31,0,0,0,.82-.48,1.27,1.27,0,0,0,.6-1q0-.51-.6-.51a2.18,2.18,0,0,0-.83.22,5.07,5.07,0,0,0-1.15.78,11.4,11.4,0,0,0-1.7,1.87,5.33,5.33,0,0,0-.29.79c-.11.34-.2.7-.28,1.07a5.23,5.23,0,0,0-.11.94c0,.21,0,.35.1.41H45.2c-.15,0-.22-.06-.22-.18a.15.15,0,0,1,0-.1s0-.09,0-.17a10.77,10.77,0,0,1,.68-1.88c.27-.55.49-1,.67-1.44q-.18.06-.21,0a1,1,0,0,1,0-.15l.49-1.06c.22-.48.49-1,.79-1.68s.64-1.3,1-2,.71-1.37,1.06-2a9.83,9.83,0,0,1,.87-1.39,1,1,0,0,1,.83-.41,1.92,1.92,0,0,1,.44.06,1.09,1.09,0,0,0,.47,0A6.76,6.76,0,0,0,51,5.78c-.45.69-.93,1.49-1.44,2.41S48.55,10,48.09,11c-.14.27-.27.56-.39.86s-.24.6-.35.9q.43-.54,1-1.11a11.35,11.35,0,0,1,1.15-1.05,4.77,4.77,0,0,1,1.2-.71,3.58,3.58,0,0,1,1.13-.25.9.9,0,0,1,.68.23.77.77,0,0,1,.22.57,1.91,1.91,0,0,1-.31.93,2.79,2.79,0,0,1-.84.94,6.67,6.67,0,0,1-.94.53,3.59,3.59,0,0,1-1.17.29,2.41,2.41,0,0,0-.17.58,2.9,2.9,0,0,0,0,.58,2.63,2.63,0,0,0,.37,1.41,1.08,1.08,0,0,0,1,.6,1.39,1.39,0,0,0,.62-.16,2.45,2.45,0,0,0,.71-.56,5.25,5.25,0,0,0,.82-1.13c.27-.49.55-1,.82-1.63.16,0,.25.06.25.18a11.28,11.28,0,0,1-1.44,2.65A3.25,3.25,0,0,1,51,16.74,2.87,2.87,0,0,1,49.73,16.92Z" transform="translate(-0.31 -0.26)" style="fill:url(#linear-gradient-10)"/></svg>