<svg width="167" height="48" viewBox="0 0 167 48" fill="none" xmlns="http://www.w3.org/2000/svg">
<path fill-rule="evenodd" clip-rule="evenodd" d="M34.922 25.2007L41.273 31.6151C42.2479 32.6009 42.2423 34.1939 41.2561 35.1768C40.7687 35.6627 40.129 35.9056 39.4894 35.9056C38.8442 35.9056 38.1989 35.657 37.7087 35.1627L31.1886 28.576L29.1373 30.6294C28.1568 31.6095 26.5704 31.6095 25.5899 30.6266C24.6122 29.6436 24.6122 28.0534 25.5927 27.0705L27.4636 25.1979C26.0576 23.9353 24.2853 22.1389 22.9272 20.0912C21.5663 22.1418 19.7911 23.9438 18.3823 25.2064L24.7333 31.6208C25.7082 32.6065 25.7026 34.1996 24.7192 35.1768C24.2318 35.6627 23.5922 35.9056 22.9526 35.9056C22.3073 35.9056 21.6621 35.657 21.1718 35.1627L14.6517 28.576L12.6004 30.6294C11.6199 31.6095 10.0336 31.6095 9.053 30.6266C8.07527 29.6436 8.07527 28.0534 9.05582 27.0705L10.9267 25.1979C8.28096 22.8253 4.34187 18.5801 4.29397 14.2953C4.26297 11.6007 5.29987 9.04738 7.21307 7.10695C9.16007 5.13262 11.8735 4 14.6573 4C17.4412 4 20.1546 5.13262 22.1016 7.10695C22.4003 7.412 22.6708 7.73399 22.9272 8.06728C23.1836 7.73399 23.4541 7.412 23.7528 7.10695C25.6998 5.13262 28.4132 4 31.197 4C33.9809 4 36.6943 5.13262 38.6413 7.10695C40.5573 9.04738 41.5942 11.5979 41.5632 14.2925C41.5125 18.5801 37.5678 22.8281 34.922 25.2007ZM9.31223 14.236C9.33759 16.377 12.1017 19.5743 14.6602 21.7944C17.2158 19.5743 19.9799 16.377 20.0053 14.236C20.0222 12.8972 19.4981 11.6205 18.5344 10.6432C17.506 9.60381 16.131 9.03044 14.6573 9.03044C13.1837 9.03044 11.8087 9.60381 10.7831 10.6432C9.81941 11.6205 9.29814 12.8972 9.31223 14.236ZM25.8547 14.236C25.8773 16.377 28.6442 19.5743 31.1999 21.7944C33.7555 19.5743 36.5224 16.377 36.5478 14.236C36.5647 12.8972 36.0406 11.6205 35.077 10.6432C34.0485 9.60381 32.6735 9.03044 31.1999 9.03044C29.729 9.03044 28.3512 9.60381 27.3256 10.6432C26.3619 11.6205 25.8407 12.8972 25.8547 14.236Z" fill="#684FFF"/>
<path d="M9.02672 33.4805C9.02672 34.873 7.90247 36 6.51336 36C5.12425 36 4 34.8702 4 33.4805C4 32.0909 5.12425 30.9611 6.51336 30.9611C7.90247 30.9611 9.02672 32.0881 9.02672 33.4805Z" fill="#684FFF"/>
<path d="M151.8 29.0968C151.8 33.3254 153.544 35.2575 156.848 35.2575C158.5 35.2575 160.337 34.9827 161.9 34.1078C162.633 33.6479 163 33.0955 163 32.4982C163 32.2683 162.955 32.0384 162.815 31.8084L162.311 30.8438C161.944 30.154 161.53 29.9241 161.026 29.9241C160.676 29.9241 160.293 30.0223 159.852 30.1357L159.851 30.1359C159.77 30.1566 159.688 30.1777 159.604 30.1989C159.374 30.2437 159.1 30.2914 158.87 30.2914C157.677 30.2914 157.081 29.2791 157.081 26.9349V5.7021C157.081 4.78235 156.3 4 155.381 4H153.5C152.581 4 151.8 4.78235 151.8 5.7021V29.0968Z" fill="#684FFF"/>
<path fill-rule="evenodd" clip-rule="evenodd" d="M139.21 13.609C144.903 13.609 148.576 18.0199 148.576 24.1356C148.576 30.4337 144.261 35.3072 137.651 35.31C135.814 35.31 134.022 34.9876 132.829 34.2978V42.2979C132.829 43.2177 132.048 44 131.129 44H129.248C128.329 44 127.548 43.2177 127.548 42.2979V15.8158C127.548 14.8961 128.329 14.1137 129.248 14.1137H131.129C132.048 14.1137 132.829 14.8961 132.829 15.9532C134.114 14.711 136.547 13.609 139.21 13.609ZM137.191 30.3888C140.865 30.3888 142.976 27.7221 142.976 24.273C142.976 20.9642 141.047 18.5723 137.558 18.5751C135.766 18.5751 134.114 19.4023 132.829 20.8268V29.1943C134.254 30.114 135.447 30.3888 137.191 30.3888Z" fill="#684FFF"/>
<path d="M92.4988 25.4211L88.2288 15.3992C87.9068 14.6168 87.1284 14.1121 86.2996 14.1121H84.3256C83.2224 14.1121 82.3964 15.0318 82.3964 16.0413C82.3964 16.3161 82.4888 16.5937 82.5812 16.8237L90.8916 34.8009L90.4324 35.9029C89.5588 38.0648 88.5956 39.122 87.2656 39.122C87.0808 39.122 86.8512 39.122 86.6692 39.0771C86.2548 38.9846 85.888 38.9397 85.6136 38.9397C85.0172 38.9397 84.6504 39.1697 84.2808 39.952L83.6844 41.1942C83.592 41.3765 83.5472 41.6093 83.5472 41.7915C83.5472 42.2963 83.8216 42.8487 84.3732 43.1235C85.4736 43.6759 86.6692 43.9984 87.862 43.9984C90.8916 43.9984 92.8208 42.5262 95.8504 34.8037L102.876 16.919C102.968 16.6442 103.013 16.4143 103.013 16.1367C103.013 15.0795 102.139 14.1149 100.994 14.1149H99.6612C98.6504 14.1149 97.732 14.757 97.4128 15.7245L94.246 25.379C93.8918 26.3998 93.7073 27.3787 93.5312 28.3133L93.5124 28.4131C93.4421 28.1933 93.3741 27.976 93.3066 27.7599C93.0623 26.9784 92.8233 26.2139 92.4988 25.4211Z" fill="#684FFF"/>
<path d="M114.646 25.4211L110.376 15.3992C110.054 14.6168 109.276 14.1121 108.45 14.1121H106.476C105.373 14.1121 104.547 15.0318 104.547 16.0413C104.547 16.3161 104.639 16.5937 104.731 16.8237L113.042 34.8009L112.583 35.9029C111.709 38.0648 110.746 39.122 109.416 39.122C109.231 39.122 109.001 39.122 108.819 39.0771C108.405 38.9846 108.038 38.9397 107.764 38.9397C107.167 38.9397 106.801 39.1697 106.431 39.952L105.835 41.1942C105.742 41.3765 105.697 41.6093 105.697 41.7915C105.697 42.2963 105.972 42.8487 106.523 43.1235C107.624 43.6759 108.819 43.9984 110.012 43.9984C113.042 43.9984 114.971 42.5262 118.001 34.8037L125.026 16.919C125.118 16.6442 125.163 16.4143 125.163 16.1367C125.163 15.0795 124.289 14.1149 123.144 14.1149H121.811C120.801 14.1149 119.882 14.757 119.563 15.7245L116.396 25.379C116.042 26.3998 115.858 27.3787 115.681 28.3133L115.663 28.4131C115.587 28.1796 115.515 27.9489 115.443 27.7196C115.201 26.9518 114.965 26.2006 114.646 25.4211Z" fill="#684FFF"/>
<path fill-rule="evenodd" clip-rule="evenodd" d="M61.2964 4.28456C63.5924 4.23689 66.4344 4.19203 68.1788 4.19203C77.6372 4.19203 80.6192 9.80306 80.622 15.0888C80.622 20.5597 76.5368 25.5257 68.8704 25.5257C67.9072 25.5257 66.0704 25.5257 64.6928 25.3883V33.6549C64.6928 34.5746 63.9116 35.357 62.9932 35.357H60.7448C59.8264 35.357 59.0452 34.5746 59.0452 33.6549V24.7462L57.1832 24.5331C55.8336 24.3789 54.8621 23.1591 55.0161 21.8047L55.0609 21.4177C55.2149 20.0661 56.4328 19.0931 57.7852 19.2473L59.0452 19.3903V6.53907C59.0452 5.30807 60.0644 4.28456 61.2964 4.28456ZM64.6928 20.01C66.0228 20.1474 67.4004 20.24 68.6856 20.24C72.0372 20.24 74.6524 18.6304 74.6552 15.044C74.6552 11.6874 72.5888 9.47779 68.7332 9.47779C67.8624 9.47779 65.7484 9.52826 65.7484 9.52826C65.1912 9.56191 64.6928 10.0358 64.6928 10.6022V20.01Z" fill="#684FFF"/>
</svg>
